<?xml version="1.0" standalone="no"?>
<!DOCTYPE svg PUBLIC "-//W3C//DTD SVG 20010904//EN"
 "http://www.w3.org/TR/2001/REC-SVG-20010904/DTD/svg10.dtd">
<svg version="1.0" xmlns="http://www.w3.org/2000/svg"
 width="200.000000pt" height="200.000000pt" viewBox="0 0 200.000000 200.000000"
 preserveAspectRatio="xMidYMid meet">

<g transform="translate(0.000000,200.000000) scale(0.100000,-0.100000)"
fill="#000000" stroke="none">
<path d="M238 1924 c-57 -31 -86 -136 -59 -217 7 -20 28 -50 47 -67 l35 -30
642 0 c626 0 643 1 675 20 87 53 95 210 15 280 l-34 30 -647 0 c-553 -1 -651
-3 -674 -16z"/>
<path d="M241 1157 c-45 -23 -65 -62 -69 -136 -5 -84 10 -132 49 -166 l31 -25
473 0 473 0 31 25 c39 34 54 82 49 166 -4 74 -24 113 -69 136 -18 10 -139 13
-484 13 -345 0 -466 -3 -484 -13z"/>
<path d="M252 373 c-112 -55 -112 -241 0 -299 22 -12 151 -14 751 -14 l724 0
34 23 c51 33 71 80 67 152 -4 71 -30 114 -82 139 -30 14 -110 16 -748 16 -636
0 -717 -2 -746 -17z"/>
</g>
</svg>
