<?xml version="1.0" standalone="no"?>
<!DOCTYPE svg PUBLIC "-//W3C//DTD SVG 20010904//EN"
 "http://www.w3.org/TR/2001/REC-SVG-20010904/DTD/svg10.dtd">
<svg version="1.0" xmlns="http://www.w3.org/2000/svg"
 width="200.000000pt" height="200.000000pt" viewBox="0 0 200.000000 200.000000"
 preserveAspectRatio="xMidYMid meet">

<g transform="translate(0.000000,200.000000) scale(0.100000,-0.100000)"
fill="#000000" stroke="none">
<path d="M432 1238 c-15 -15 -15 -51 0 -66 17 -17 349 -17 366 0 17 17 15 65
-4 72 -31 12 -349 7 -362 -6z"/>
<path d="M867 1080 c-4 -17 0 -20 30 -20 32 0 35 -2 29 -23 -3 -13 -8 -49 -12
-81 -7 -57 -6 -58 17 -54 21 3 25 12 37 81 l14 77 33 0 c24 0 34 5 38 20 5 19
0 20 -88 20 -84 0 -93 -2 -98 -20z"/>
<path d="M1076 1083 c-9 -31 -26 -136 -26 -160 0 -22 4 -23 64 -23 60 0 76 8
76 35 0 2 -19 5 -42 7 -55 4 -61 31 -8 36 32 3 49 15 50 35 0 4 -16 7 -35 7
-28 0 -35 4 -35 20 0 17 7 20 44 20 35 0 45 4 49 20 5 19 0 20 -63 20 -57 0
-70 -3 -74 -17z"/>
<path d="M1255 1076 c-16 -16 -25 -40 -30 -81 -10 -73 0 -89 55 -93 33 -3 48
2 66 19 13 12 24 28 24 36 0 19 -40 16 -55 -4 -8 -10 -19 -14 -30 -9 -14 5
-16 14 -11 48 4 23 12 48 18 55 17 21 38 15 38 -12 0 -20 5 -25 24 -25 30 0
41 36 20 67 -21 33 -86 32 -119 -1z"/>
<path d="M1427 1093 c-3 -5 -10 -42 -17 -83 -6 -41 -14 -83 -16 -92 -4 -14 1
-18 19 -18 25 0 37 16 37 51 0 14 7 19 28 19 26 0 28 -2 24 -36 -4 -33 -2 -35
19 -32 20 2 25 12 35 63 28 142 27 135 1 135 -26 0 -37 -16 -37 -56 0 -20 -5
-24 -29 -24 -28 0 -28 1 -21 40 7 37 6 40 -16 40 -12 0 -25 -3 -27 -7z"/>
<path d="M426 1024 c-10 -25 -7 -42 10 -58 23 -23 245 -23 268 0 17 16 20 33
10 58 -9 24 -279 24 -288 0z"/>
<path d="M436 824 c-9 -8 -16 -23 -16 -33 0 -38 18 -41 220 -41 206 0 220 3
220 45 0 42 -14 45 -216 45 -162 0 -195 -3 -208 -16z"/>
</g>
</svg>
